#N canvas 354 277 457 470 10;
#N canvas 103 278 801 407 4pointWeighted 1;
#X obj 1 -2 +;
#X obj 44 -1 f;
#X obj -9 94 /;
#X obj -9 50 t b f;
#X obj -9 25 f;
#X obj -28 167 *;
#X obj -28 142 unpack f f f f;
#X obj 2 167 *;
#X obj 32 167 *;
#X obj 62 167 *;
#X msg 62 -31 0;
#X obj -29 -86 t b b b b;
#X obj 1 -32 list-drip;
#X obj 156 -9 pow 2;
#X obj 198 -13 pow 2;
#X obj 175 11 +;
#X obj 175 32 sqrt;
#X obj 495 -34 pow 2;
#X obj 534 -34 pow 2;
#X obj 515 -15 +;
#X obj 514 7 sqrt;
#X obj 159 52 -;
#X obj 159 73 abs;
#X floatatom 226 133 5 0 0 0 - - -;
#N canvas 492 473 214 209 tabadappnt 0;
#X obj 24 3 inlet;
#X obj 24 28 t b b b b;
#X obj 12 73 tabread adappnt;
#X obj 39 95 tabread adappnt;
#X obj 73 112 tabread adappnt;
#X obj 99 128 tabread adappnt;
#X msg 12 51 0;
#X msg 40 51 1;
#X msg 68 53 2;
#X msg 96 54 3;
#X obj 30 152 pack 0 0 0 0;
#X obj 31 186 outlet;
#X connect 0 0 1 0;
#X connect 1 0 6 0;
#X connect 1 1 7 0;
#X connect 1 2 8 0;
#X connect 1 3 9 0;
#X connect 2 0 10 0;
#X connect 3 0 10 1;
#X connect 4 0 10 2;
#X connect 5 0 10 3;
#X connect 6 0 2 0;
#X connect 7 0 3 0;
#X connect 8 0 4 0;
#X connect 9 0 5 0;
#X connect 10 0 11 0;
#X restore 5 -56 pd tabadappnt;
#N canvas 502 394 214 209 tabadappnt 0;
#X obj 24 3 inlet;
#X obj 24 28 t b b b b;
#X obj 12 73 tabread adappnt;
#X obj 39 95 tabread adappnt;
#X obj 73 112 tabread adappnt;
#X obj 99 128 tabread adappnt;
#X msg 12 51 0;
#X msg 40 51 1;
#X msg 68 53 2;
#X msg 96 54 3;
#X obj 30 152 pack 0 0 0 0;
#X obj 31 186 outlet;
#X connect 0 0 1 0;
#X connect 1 0 6 0;
#X connect 1 1 7 0;
#X connect 1 2 8 0;
#X connect 1 3 9 0;
#X connect 2 0 10 0;
#X connect 3 0 10 1;
#X connect 4 0 10 2;
#X connect 5 0 10 3;
#X connect 6 0 2 0;
#X connect 7 0 3 0;
#X connect 8 0 4 0;
#X connect 9 0 5 0;
#X connect 10 0 11 0;
#X restore -28 121 pd tabadappnt;
#X obj 242 -9 pow 2;
#X obj 279 -9 pow 2;
#X obj 261 11 +;
#X obj 261 32 sqrt;
#X obj 245 52 -;
#X obj 245 73 abs;
#X obj 326 -9 pow 2;
#X obj 363 -9 pow 2;
#X obj 345 11 +;
#X obj 345 32 sqrt;
#X obj 329 52 -;
#X obj 329 73 abs;
#X obj 410 -9 pow 2;
#X obj 447 -9 pow 2;
#X obj 429 11 +;
#X obj 429 32 sqrt;
#X obj 413 52 -;
#X obj 413 73 abs;
#X obj -28 190 s \$0-wth1;
#X obj 2 210 s \$0-wth2;
#X obj 32 231 s \$0-wth3;
#X obj 62 188 s \$0-wth4;
#X obj 121 32 r \$0-pos;
#X obj 207 32 r \$0-pos;
#X obj 292 32 r \$0-pos;
#X obj 376 32 r \$0-pos;
#X obj 513 26 s \$0-pos;
#X obj -29 -110 r \$0-weigh;
#N canvas 12 31 641 382 vandistcheck 0;
#X obj 225 168 outlet;
#X obj 136 -32 inlet;
#X obj 192 -31 inlet;
#X obj 275 -33 inlet;
#X obj 353 -31 inlet;
#X obj 303 170 abs;
#X obj 304 192 t b f;
#X obj 261 118 f;
#X obj 286 118 f;
#X obj 310 118 f;
#X obj 338 119 f;
#X obj 261 91 sel 0 1 2 3;
#X obj 193 94 sel 10;
#X obj 332 218 tabwrite adappnt;
#X obj 303 243 s \$0-weigh;
#N canvas 0 22 450 300 4input 0;
#X obj 29 8 inlet;
#X obj 93 12 inlet;
#X obj 150 19 inlet;
#X obj 234 18 inlet;
#X obj 148 241 outlet;
#X obj 44 57 <;
#X obj 44 129 sel 0 1;
#X msg 45 159 10;
#X obj 86 56 <;
#X obj 147 59 <;
#X obj 87 94 f;
#X obj 109 129 sel 0 1;
#X obj 155 90 f;
#X msg 111 160 10;
#X obj 166 132 sel 0 1;
#X msg 168 163 10;
#X msg 199 160 0;
#X connect 0 0 5 0;
#X connect 0 0 8 0;
#X connect 0 0 9 0;
#X connect 1 0 5 1;
#X connect 2 0 8 1;
#X connect 3 0 9 1;
#X connect 5 0 6 0;
#X connect 6 0 7 0;
#X connect 6 1 10 0;
#X connect 7 0 4 0;
#X connect 8 0 10 1;
#X connect 9 0 12 1;
#X connect 10 0 11 0;
#X connect 11 0 13 0;
#X connect 11 1 12 0;
#X connect 12 0 14 0;
#X connect 13 0 4 0;
#X connect 14 0 15 0;
#X connect 14 1 16 0;
#X connect 15 0 4 0;
#X connect 16 0 4 0;
#X restore 137 30 pd 4input;
#N canvas 0 22 450 300 4input 0;
#X obj 29 8 inlet;
#X obj 93 12 inlet;
#X obj 150 19 inlet;
#X obj 234 18 inlet;
#X obj 148 241 outlet;
#X obj 44 57 <;
#X obj 44 129 sel 0 1;
#X msg 45 159 10;
#X obj 86 56 <;
#X obj 147 59 <;
#X obj 87 94 f;
#X obj 109 129 sel 0 1;
#X obj 155 90 f;
#X msg 111 160 10;
#X obj 166 132 sel 0 1;
#X msg 168 163 10;
#X msg 199 160 1;
#X connect 0 0 5 0;
#X connect 0 0 8 0;
#X connect 0 0 9 0;
#X connect 1 0 5 1;
#X connect 2 0 8 1;
#X connect 3 0 9 1;
#X connect 5 0 6 0;
#X connect 6 0 7 0;
#X connect 6 1 10 0;
#X connect 7 0 4 0;
#X connect 8 0 10 1;
#X connect 9 0 12 1;
#X connect 10 0 11 0;
#X connect 11 0 13 0;
#X connect 11 1 12 0;
#X connect 12 0 14 0;
#X connect 13 0 4 0;
#X connect 14 0 15 0;
#X connect 14 1 16 0;
#X connect 15 0 4 0;
#X connect 16 0 4 0;
#X restore 198 30 pd 4input;
#N canvas 0 22 450 300 4input 0;
#X obj 29 8 inlet;
#X obj 93 12 inlet;
#X obj 150 19 inlet;
#X obj 234 18 inlet;
#X obj 148 241 outlet;
#X obj 44 57 <;
#X obj 44 129 sel 0 1;
#X msg 45 159 10;
#X obj 86 56 <;
#X obj 147 59 <;
#X obj 87 94 f;
#X obj 109 129 sel 0 1;
#X obj 155 90 f;
#X msg 111 160 10;
#X obj 166 132 sel 0 1;
#X msg 168 163 10;
#X msg 190 162 2;
#X connect 0 0 5 0;
#X connect 0 0 8 0;
#X connect 0 0 9 0;
#X connect 1 0 5 1;
#X connect 2 0 8 1;
#X connect 3 0 9 1;
#X connect 5 0 6 0;
#X connect 6 0 7 0;
#X connect 6 1 10 0;
#X connect 7 0 4 0;
#X connect 8 0 10 1;
#X connect 9 0 12 1;
#X connect 10 0 11 0;
#X connect 11 0 13 0;
#X connect 11 1 12 0;
#X connect 12 0 14 0;
#X connect 13 0 4 0;
#X connect 14 0 15 0;
#X connect 14 1 16 0;
#X connect 15 0 4 0;
#X connect 16 0 4 0;
#X restore 259 31 pd 4input;
#N canvas 0 22 450 300 4input 0;
#X obj 29 8 inlet;
#X obj 93 12 inlet;
#X obj 150 19 inlet;
#X obj 234 18 inlet;
#X obj 148 241 outlet;
#X obj 44 57 <;
#X obj 44 129 sel 0 1;
#X msg 45 159 10;
#X obj 86 56 <;
#X obj 147 59 <;
#X obj 87 94 f;
#X obj 109 129 sel 0 1;
#X obj 155 90 f;
#X msg 111 160 10;
#X obj 166 132 sel 0 1;
#X msg 168 163 10;
#X msg 199 160 3;
#X connect 0 0 5 0;
#X connect 0 0 8 0;
#X connect 0 0 9 0;
#X connect 1 0 5 1;
#X connect 2 0 8 1;
#X connect 3 0 9 1;
#X connect 5 0 6 0;
#X connect 6 0 7 0;
#X connect 6 1 10 0;
#X connect 7 0 4 0;
#X connect 8 0 10 1;
#X connect 9 0 12 1;
#X connect 10 0 11 0;
#X connect 11 0 13 0;
#X connect 11 1 12 0;
#X connect 12 0 14 0;
#X connect 13 0 4 0;
#X connect 14 0 15 0;
#X connect 14 1 16 0;
#X connect 15 0 4 0;
#X connect 16 0 4 0;
#X restore 323 28 pd 4input;
#X obj 303 146 - 452;
#X floatatom 383 176 5 0 0 0 - - -;
#X connect 1 0 7 1;
#X connect 1 0 15 0;
#X connect 1 0 16 1;
#X connect 1 0 17 1;
#X connect 1 0 18 1;
#X connect 2 0 8 1;
#X connect 2 0 15 1;
#X connect 2 0 16 0;
#X connect 2 0 17 2;
#X connect 2 0 18 2;
#X connect 3 0 9 1;
#X connect 3 0 15 2;
#X connect 3 0 16 2;
#X connect 3 0 17 0;
#X connect 3 0 18 3;
#X connect 4 0 10 1;
#X connect 4 0 15 3;
#X connect 4 0 16 3;
#X connect 4 0 17 3;
#X connect 4 0 18 0;
#X connect 5 0 6 0;
#X connect 5 0 20 0;
#X connect 6 0 14 0;
#X connect 6 1 13 0;
#X connect 7 0 19 0;
#X connect 8 0 19 0;
#X connect 9 0 19 0;
#X connect 10 0 19 0;
#X connect 11 0 7 0;
#X connect 11 1 8 0;
#X connect 11 2 9 0;
#X connect 11 3 10 0;
#X connect 12 1 0 0;
#X connect 12 1 13 1;
#X connect 15 0 11 0;
#X connect 15 0 12 0;
#X connect 16 0 12 0;
#X connect 16 0 11 0;
#X connect 17 0 12 0;
#X connect 17 0 11 0;
#X connect 18 0 12 0;
#X connect 18 0 11 0;
#X connect 19 0 5 0;
#X restore 226 107 pd vandistcheck;
#X floatatom 23 20 5 0 0 0 - - -;
#X msg -10 72 1;
#X obj 153 -34 pipe 50;
#X obj 236 -38 pipe 50;
#X obj 325 -29 pipe 50;
#X obj 401 -43 pipe 50;
#X obj 31 -87 table adappnt 4;
#X obj 320 -104 inlet touchPositionX;
#X obj 452 -106 inlet touchPositionY;
#N canvas 419 287 638 329 tuning------------ 0;
#X obj 38 -297 r tune1x;
#X obj 42 -187 int;
#X obj 95 -188 int;
#X obj 95 -297 r tune1y;
#X obj 160 -187 int;
#X obj 228 -190 int;
#X obj 160 -296 r tune2x;
#X obj 227 -296 r tune2y;
#X obj 300 -197 int;
#X obj 357 -195 int;
#X obj 300 -294 r tune3x;
#X obj 357 -294 r tune3y;
#X obj 433 -200 int;
#X obj 511 -201 int;
#X obj 434 -296 r tune4x;
#X obj 509 -300 r tune4y;
#X obj 42 -160 outlet;
#X obj 95 -163 outlet;
#X obj 161 -165 outlet;
#X obj 228 -166 outlet;
#X obj 300 -173 outlet;
#X obj 357 -172 outlet;
#X obj 433 -176 outlet;
#X obj 511 -179 outlet;
#X text 161 -117 Tuning is an important feature in PESI On_Body \,
you can set and save pre-settings for your sound modules.;
#X obj 40 -272 sopiscale 0 10 0 320;
#X obj 95 -224 sopiscale 0 10 0 480;
#X obj 160 -251 sopiscale 0 10 0 320;
#X obj 300 -270 sopiscale 0 10 0 320;
#X obj 434 -268 sopiscale 0 10 0 320;
#X obj 228 -220 sopiscale 0 10 0 480;
#X obj 357 -242 sopiscale 0 10 0 480;
#X obj 503 -230 sopiscale 0 10 0 480;
#X text 162 -80 Each sound module in the PESI mobile instrument can
be tuned through a 4-point tuning interface \, which assigns to the
sound module with a parameter pre-set. The vector values for each points
are mapped to parameters which cannot be modified any other way.;
#X connect 0 0 25 0;
#X connect 1 0 16 0;
#X connect 2 0 17 0;
#X connect 3 0 26 0;
#X connect 4 0 18 0;
#X connect 5 0 19 0;
#X connect 6 0 27 0;
#X connect 7 0 30 0;
#X connect 8 0 20 0;
#X connect 9 0 21 0;
#X connect 10 0 28 0;
#X connect 11 0 31 0;
#X connect 12 0 22 0;
#X connect 13 0 23 0;
#X connect 14 0 29 0;
#X connect 15 0 32 0;
#X connect 25 0 1 0;
#X connect 26 0 2 0;
#X connect 27 0 4 0;
#X connect 28 0 8 0;
#X connect 29 0 12 0;
#X connect 30 0 5 0;
#X connect 31 0 9 0;
#X connect 32 0 13 0;
#X restore 158 -103 pd tuning------------;
#X text -28 249 The Weight calculation is modified from the original
patch by Tim Vets;
#X text 361 106 Once the 4-points are set in the tuning module \, this
abstract continuously compares the vector position of the touch input
with the vector position of each point and outputs the closest point
id and the distance value. The weighted average values are calculated
based in this distance data and mapped to the frequency parameters
of four pulse width modulation and squarewave generators. More about
this mapping;
#X text 363 213 http://www.uni-weimar.de/medien/wiki/images/Tahiroglu_pd11_19_07.pdf
;
#X connect 0 0 1 0;
#X connect 0 0 4 1;
#X connect 0 0 55 0;
#X connect 1 0 0 1;
#X connect 2 0 5 1;
#X connect 2 0 7 1;
#X connect 2 0 8 1;
#X connect 2 0 9 1;
#X connect 3 0 56 0;
#X connect 3 1 2 1;
#X connect 4 0 3 0;
#X connect 5 0 44 0;
#X connect 6 0 5 0;
#X connect 6 1 7 0;
#X connect 6 2 8 0;
#X connect 6 3 9 0;
#X connect 7 0 45 0;
#X connect 8 0 46 0;
#X connect 9 0 47 0;
#X connect 10 0 0 1;
#X connect 11 0 25 0;
#X connect 11 1 4 0;
#X connect 11 2 24 0;
#X connect 11 3 10 0;
#X connect 12 0 0 0;
#X connect 13 0 15 0;
#X connect 14 0 15 1;
#X connect 15 0 16 0;
#X connect 16 0 21 1;
#X connect 17 0 19 0;
#X connect 18 0 19 1;
#X connect 19 0 20 0;
#X connect 20 0 52 0;
#X connect 21 0 22 0;
#X connect 22 0 54 0;
#X connect 24 0 12 0;
#X connect 25 0 6 0;
#X connect 26 0 28 0;
#X connect 27 0 28 1;
#X connect 28 0 29 0;
#X connect 29 0 30 1;
#X connect 30 0 31 0;
#X connect 31 0 54 1;
#X connect 32 0 34 0;
#X connect 33 0 34 1;
#X connect 34 0 35 0;
#X connect 35 0 36 1;
#X connect 36 0 37 0;
#X connect 37 0 54 2;
#X connect 38 0 40 0;
#X connect 39 0 40 1;
#X connect 40 0 41 0;
#X connect 41 0 42 1;
#X connect 42 0 43 0;
#X connect 43 0 54 3;
#X connect 48 0 21 0;
#X connect 49 0 30 0;
#X connect 50 0 36 0;
#X connect 51 0 42 0;
#X connect 53 0 11 0;
#X connect 54 0 23 0;
#X connect 56 0 2 0;
#X connect 57 0 13 0;
#X connect 58 0 26 0;
#X connect 59 0 32 0;
#X connect 60 0 38 0;
#X connect 62 0 17 0;
#X connect 63 0 18 0;
#X connect 64 0 57 0;
#X connect 64 1 14 0;
#X connect 64 2 58 0;
#X connect 64 3 27 0;
#X connect 64 4 59 0;
#X connect 64 5 33 0;
#X connect 64 6 60 0;
#X connect 64 7 39 0;
#X restore 9 -252 pd 4pointWeighted;
#X obj 44 -60 *~ 10;
#X obj 84 -60 *~ 10;
#X obj 77 -208 r \$0-wth2;
#X obj 16 -209 r \$0-wth1;
#X obj 140 -209 r \$0-wth3;
#X obj 121 22 *~ 10;
#X obj 161 22 *~ 10;
#X obj 14 116 outlet~;
#X obj 87 112 outlet~;
#X obj 33 -123 *~ 0.8;
#X obj 116 -43 *~ 0.8;
#X obj 11 -59 *~ 3;
#X obj 88 23 *~ 3;
#X obj 34 -175 SOPIu_sub;
#X obj 44 -83 rev3~ 90 70;
#X obj 121 -1 rev3~ 90 70;
#X obj 13 88 *~ 0.8;
#X obj 87 86 *~ 0.8;
#X obj 9 -283 inlet touchPositionX;
#X obj 138 -284 inlet touchPositionY;
#X obj 271 -283 inlet accX;
#X obj 342 -283 inlet accY;
#X obj 159 108 outlet vib;
#X obj 203 -210 r \$0-wth4;
#X text 124 -250 <<-- weighted sum mapping;
#X text 106 -173 <<-- audio synthesis with pulse width modulation and
squarewave generator;
#X connect 1 0 17 0;
#X connect 2 0 17 0;
#X connect 3 0 14 1;
#X connect 4 0 14 0;
#X connect 5 0 14 2;
#X connect 6 0 18 0;
#X connect 7 0 18 0;
#X connect 10 0 12 0;
#X connect 10 0 15 0;
#X connect 11 0 13 0;
#X connect 11 0 16 0;
#X connect 12 0 17 0;
#X connect 13 0 18 0;
#X connect 14 0 10 0;
#X connect 14 1 11 0;
#X connect 14 2 23 0;
#X connect 15 0 1 0;
#X connect 15 1 2 0;
#X connect 16 0 6 0;
#X connect 16 1 7 0;
#X connect 17 0 8 0;
#X connect 18 0 9 0;
#X connect 19 0 0 0;
#X connect 20 0 0 1;
#X connect 21 0 14 5;
#X connect 22 0 14 6;
#X connect 24 0 14 3;
