#N canvas 1092 362 742 539 10;
#X obj -4 99 soundfiler;
#X obj -5 45 table sample1;
#X text 240 169 sample to ms;
#X obj 198 455 catch~ bus;
#X obj 166 188 t b f;
#X msg -4 84 read -resize 3.wav sample1;
#X obj 386 24 inlet;
#N canvas 1104 625 450 300 env 0;
#X obj 83 99 bng 15 250 50 0 empty empty empty 17 7 0 10 -262144 -1
-1;
#X obj 97 120 samplerate~;
#X obj 101 173 osc~;
#X msg 188 129 0;
#X obj 101 220 +~ 0.5;
#X obj 86 248 tabwrite~ wnd;
#X obj 200 192 table wnd 1024;
#X obj 101 198 *~ -0.5;
#X obj 100 150 / 1024;
#X obj 49 22 inlet;
#X obj 133 42 block~ 1024 4;
#X connect 0 0 3 0;
#X connect 0 0 1 0;
#X connect 0 0 5 0;
#X connect 1 0 8 0;
#X connect 2 0 7 0;
#X connect 3 0 2 1;
#X connect 4 0 5 0;
#X connect 7 0 4 0;
#X connect 8 0 2 0;
#X connect 9 0 0 0;
#X restore 386 56 pd env;
#X obj 166 234 f;
#X obj 193 234 + 1;
#X msg 17 375 sample1 \$1 \$2 \$3 \$4 \$5;
#X msg 165 374 sample1 \$1 \$2 \$3 \$4 \$5;
#X obj 219 234 mod 3;
#X msg 306 367 sample1 \$1 \$2 \$3 \$4 \$5;
#X obj 166 350 route 0 1 2;
#X obj -4 64 loadbang;
#X obj 166 24 inlet indx;
#X obj 233 24 inlet tune1;
#X obj 310 24 inlet tune4;
#X obj 198 480 outlet~;
#X obj 193 290 line;
#X obj 166 325 pack 0 0 100 1000 100 1;
#X obj 166 66 int;
#X obj 166 47 * 10;
#X obj 193 168 / 44.1;
#X obj 166 168 *;
#X obj 166 115 change;
#X obj 166 94 / 10;
#X msg 193 267 \$1 20;
#X obj 166 210 del 5;
#X obj 165 395 sampgran wnd 1024;
#X obj 306 388 sampgran wnd 1024;
#X obj 17 397 sampgran wnd 1024;
#X text 305 479 modified version of the original patch by Thomas Grill
;
#X text 315 316 route values for playpos(ms) attack (ms) sustain (ms)
release(ms) speed;
#X connect 0 0 24 0;
#X connect 3 0 19 0;
#X connect 4 0 29 0;
#X connect 4 1 28 0;
#X connect 5 0 0 0;
#X connect 6 0 7 0;
#X connect 8 0 9 0;
#X connect 8 0 21 0;
#X connect 9 0 12 0;
#X connect 10 0 32 0;
#X connect 11 0 30 0;
#X connect 12 0 8 1;
#X connect 13 0 31 0;
#X connect 14 0 10 0;
#X connect 14 1 11 0;
#X connect 14 2 13 0;
#X connect 15 0 5 0;
#X connect 16 0 23 0;
#X connect 17 0 21 2;
#X connect 17 0 21 3;
#X connect 17 0 21 4;
#X connect 18 0 21 5;
#X connect 20 0 21 1;
#X connect 21 0 14 0;
#X connect 22 0 27 0;
#X connect 23 0 22 0;
#X connect 24 0 25 1;
#X connect 25 0 4 0;
#X connect 26 0 25 0;
#X connect 27 0 26 0;
#X connect 28 0 20 0;
#X connect 29 0 8 0;
