#N canvas 503 182 435 340 10;
#X text 207 136 inlets;
#X text 208 187 _min value for the output range;
#X text 208 202 _max value for the output range;
#X text 206 223 _min value for the incoming range;
#X text 206 238 _max value for the incoming range;
#X text 211 165 _ float;
#X obj 102 193 *;
#X obj 103 30 inlet;
#X obj 117 168 /;
#X obj 102 301 outlet;
#X obj 172 80 float \$1;
#X obj 118 81 float \$2;
#X obj 103 58 t f b b b b;
#X obj 150 114 float \$4;
#X obj 207 115 float \$3;
#X obj 118 101 -;
#X obj 149 145 -;
#X obj 56 176 -;
#X obj 44 121 t f b;
#X obj 71 146 float \$3;
#X obj 102 221 t f b;
#X obj 102 260 +;
#X obj 128 243 float \$1;
#X obj 44 93 clip;
#X obj 145 32 loadbang;
#X connect 6 0 20 0;
#X connect 7 0 12 0;
#X connect 8 0 6 1;
#X connect 10 0 15 1;
#X connect 11 0 15 0;
#X connect 12 0 23 0;
#X connect 12 1 11 0;
#X connect 12 2 10 0;
#X connect 12 3 13 0;
#X connect 12 4 14 0;
#X connect 13 0 16 0;
#X connect 13 0 23 2;
#X connect 14 0 16 1;
#X connect 14 0 23 1;
#X connect 15 0 8 0;
#X connect 16 0 8 1;
#X connect 17 0 6 0;
#X connect 18 0 17 0;
#X connect 18 1 19 0;
#X connect 19 0 17 1;
#X connect 20 0 21 0;
#X connect 20 1 22 0;
#X connect 21 0 9 0;
#X connect 22 0 21 1;
#X connect 23 0 18 0;
#X connect 24 0 11 0;
#X connect 24 0 10 0;
#X connect 24 0 13 0;
#X connect 24 0 14 0;
