#N canvas 545 231 735 569 10;
#X obj 76 47 inlet;
#X obj 74 395 outlet~;
#N canvas 0 22 450 300 (subpatch) 0;
#X array \$0-show 100 float 0;
#X coords 0 1 100 -1 200 100 1;
#X restore 255 280 graph;
#X obj 268 159 tgl 15 0 empty empty empty 17 7 0 10 -262144 -1 -1 0
1;
#X obj 268 61 loadbang;
#X msg 268 86 0;
#X obj 252 237 tabwrite~ \$0-show;
#X obj 185 78 f \$1;
#X floatatom 101 124 6 0 0 0 - - -;
#X obj 104 368 outlet;
#X text 101 139 f0;
#X obj 108 285 *~;
#X obj 156 44 inlet;
#X obj 121 141 tgl 15 0 empty empty empty 17 7 0 10 -262144 -1 -1 1
1;
#X msg 187 104 1;
#X obj 35 219 phasor~ 0;
#X obj 35 195 + 0.2;
#X obj 19 269 -~;
#X obj 16 165 phasor~;
#X obj 268 213 metro 200;
#X text 107 103 pwm;
#X obj 74 330 *~ 0.2;
#X connect 0 0 8 0;
#X connect 3 0 19 0;
#X connect 4 0 5 0;
#X connect 4 0 7 0;
#X connect 4 0 14 0;
#X connect 5 0 3 0;
#X connect 7 0 8 0;
#X connect 8 0 9 0;
#X connect 8 0 18 0;
#X connect 8 0 16 0;
#X connect 11 0 21 0;
#X connect 12 0 13 0;
#X connect 13 0 11 1;
#X connect 14 0 13 0;
#X connect 15 0 17 1;
#X connect 16 0 15 0;
#X connect 17 0 11 0;
#X connect 17 0 6 0;
#X connect 18 0 17 0;
#X connect 19 0 6 0;
#X connect 21 0 1 0;
#X coords 0 -1 1 1 40 60 2 100 100;
