#N canvas 519 110 690 592 10;
#X obj -43 233 rpole~ 0.93538;
#X obj -44 273 cpole~ 0.96559 0.05592;
#X obj -44 294 cpole~ 0.96559 -0.05592;
#X obj -44 323 *~ 0.125;
#X obj -44 368 rzero~ -1;
#X obj -36 391 rzero~ -1;
#X obj -26 449 outlet~;
#X floatatom 134 13 5 0 0 1 f0 - -;
#X obj 138 -43 inlet;
#X obj -45 188 +~;
#X obj -2 55 * 1.01;
#X obj 45 53 * 1.03;
#X obj 226 180 -~;
#X obj 43 183 -~;
#X obj 131 179 +~;
#X obj 215 86 * 4.02;
#X obj 88 45 * 16.02;
#X obj 311 96 tgl 15 0 empty empty empty 17 7 0 10 -262144 -1 -1 1
1;
#X obj 312 54 loadbang;
#X msg 311 73 1;
#X text 213 -62 sub synth;
#X obj 86 111 SOPIu_pwm 444;
#X obj -43 214 *~ 0.034;
#X obj 139 -22 abs;
#X obj -43 252 *~ 0.00431;
#X obj -45 111 SOPIu_square 440;
#X obj 42 111 SOPIu_square 440;
#X obj 131 111 SOPIu_square 440;
#X obj 218 111 SOPIu_square 440;
#X obj -40 -44 inlet;
#X obj 2 -43 inlet;
#X obj 47 -44 inlet;
#X obj 91 -46 inlet;
#X obj -40 24 t b f;
#X obj 3 23 t b f;
#X obj 46 25 t b f;
#X obj 89 23 t b f;
#X obj -39 54 * 1;
#X floatatom -28 76 5 0 0 0 - - -;
#X floatatom 13 80 5 0 0 0 - - -;
#X floatatom 57 80 5 0 0 0 - - -;
#X floatatom 94 78 7 0 0 0 - - -;
#X obj 47 -15 * 1.03;
#X obj 89 4 + 1.2;
#X obj -40 4 + 0.7;
#X obj 47 5 + 0.7;
#X obj 3 -16 * 2.4;
#X obj 3 3 + 1;
#N canvas 787 323 450 300 acczonePITCH 0;
#X obj 192 123 sel 0 1 2 3 4 5 6;
#X msg 238 150 810;
#X floatatom 247 104 5 0 0 0 - - -;
#X obj 227 245 outlet;
#X obj 195 87 change;
#X msg 177 149 1300;
#X msg 304 151 270;
#X obj 144 114 line;
#X floatatom 96 179 5 0 0 0 - - -;
#X msg 143 94 \$1 2;
#X msg 138 149 2000;
#X msg 208 150 1000;
#X msg 266 151 540;
#X msg 342 150 90;
#X obj 203 62 inlet;
#X obj 336 242 outlet vib;
#X connect 0 0 10 0;
#X connect 0 1 5 0;
#X connect 0 2 11 0;
#X connect 0 3 1 0;
#X connect 0 4 12 0;
#X connect 0 5 6 0;
#X connect 0 6 13 0;
#X connect 1 0 3 0;
#X connect 4 0 9 0;
#X connect 5 0 3 0;
#X connect 6 0 3 0;
#X connect 7 0 0 0;
#X connect 7 0 8 0;
#X connect 9 0 7 0;
#X connect 10 0 3 0;
#X connect 10 0 15 0;
#X connect 11 0 3 0;
#X connect 12 0 3 0;
#X connect 13 0 3 0;
#X connect 13 0 15 0;
#X connect 14 0 2 0;
#X connect 14 0 4 0;
#X restore 406 -13 pd acczonePITCH;
#X obj 89 -16 * 42.6;
#X obj -1 111 SOPIu_pwm 444;
#X obj 175 111 SOPIu_pwm 444;
#X obj 262 111 SOPIu_pwm 444;
#X obj 131 88 * 2.01;
#X obj 174 87 * 5.03;
#X obj 258 86 * 8.02;
#N canvas 478 464 450 300 acczoneROL 0;
#X obj 196 140 sel 0 1 2 3 4 5 6;
#X floatatom 251 121 5 0 0 0 - - -;
#X obj 231 262 outlet;
#X obj 196 71 change;
#X obj 195 115 line;
#X msg 181 176 540;
#X msg 240 182 1000;
#X msg 196 95 \$1 3;
#X msg 153 166 270;
#X msg 210 179 810;
#X msg 271 180 1300;
#X msg 346 167 2500;
#X msg 308 168 2000;
#X obj 196 36 inlet;
#X obj 346 258 outlet vib;
#X connect 0 0 8 0;
#X connect 0 1 5 0;
#X connect 0 2 9 0;
#X connect 0 3 6 0;
#X connect 0 4 10 0;
#X connect 0 5 12 0;
#X connect 0 6 11 0;
#X connect 3 0 7 0;
#X connect 4 0 0 0;
#X connect 5 0 2 0;
#X connect 6 0 2 0;
#X connect 7 0 4 0;
#X connect 8 0 2 0;
#X connect 8 0 14 0;
#X connect 9 0 2 0;
#X connect 10 0 2 0;
#X connect 11 0 2 0;
#X connect 11 0 14 0;
#X connect 12 0 2 0;
#X connect 13 0 1 0;
#X connect 13 0 3 0;
#X restore 320 -15 pd acczoneROL;
#X obj -40 -16 * 1.1;
#X obj 181 232 rpole~ 0.93538;
#X obj 181 271 cpole~ 0.96559 0.05592;
#X obj 181 292 cpole~ 0.96559 -0.05592;
#X obj 181 330 *~ 0.125;
#X obj 181 352 rzero~ -1;
#X obj 181 375 rzero~ -1;
#X obj 181 398 rzero~ -1;
#X obj 183 440 outlet~;
#X obj 181 212 *~ 0.034;
#X obj 181 251 *~ 0.00431;
#X obj -44 345 rzero~ -1;
#X obj -24 420 *~ 1.5;
#X obj 185 419 *~ 1.5;
#X obj 319 -44 inlet accX;
#X obj 403 -42 inlet accY;
#X obj 250 30 * 1;
#X obj 252 57 * 1;
#N canvas 533 471 590 294 tuning------------ 0;
#X obj 38 -297 r tune1x;
#X obj 9 -154 int;
#X obj 95 -297 r tune1y;
#X obj 160 -296 r tune2x;
#X obj 227 -296 r tune2y;
#X obj 300 -294 r tune3x;
#X obj 357 -294 r tune3y;
#X obj 434 -296 r tune4x;
#X obj 509 -297 r tune4y;
#X obj 9 -127 outlet;
#X obj 183 -132 outlet;
#X obj 344 -141 outlet;
#X obj 511 -179 outlet;
#X text 161 -117 Tuning is an important feature in PESI On_Body \,
you can set and save pre-settings for your sound modules.;
#X obj 48 -271 pow 2;
#X obj 87 -271 pow 2;
#X obj 68 -252 +;
#X obj 67 -230 sqrt;
#X obj 197 -266 pow 2;
#X obj 236 -266 pow 2;
#X obj 217 -247 +;
#X obj 216 -225 sqrt;
#X obj 182 -195 sopiscale 1 4 0 551;
#X obj 323 -266 pow 2;
#X obj 362 -266 pow 2;
#X obj 343 -247 +;
#X obj 342 -225 sqrt;
#X obj 308 -195 sopiscale 1 5 0 551;
#X obj 471 -271 pow 2;
#X obj 510 -271 pow 2;
#X obj 491 -252 +;
#X obj 490 -230 sqrt;
#X obj 9 -193 sopiscale 0 2000 0 500;
#X obj 456 -200 sopiscale 1 8 0 551;
#X connect 0 0 14 0;
#X connect 1 0 9 0;
#X connect 2 0 15 0;
#X connect 3 0 18 0;
#X connect 4 0 19 0;
#X connect 5 0 23 0;
#X connect 6 0 24 0;
#X connect 7 0 28 0;
#X connect 8 0 29 0;
#X connect 14 0 16 0;
#X connect 15 0 16 1;
#X connect 16 0 17 0;
#X connect 17 0 32 0;
#X connect 18 0 20 0;
#X connect 19 0 20 1;
#X connect 20 0 21 0;
#X connect 21 0 22 0;
#X connect 22 0 10 0;
#X connect 23 0 25 0;
#X connect 24 0 25 1;
#X connect 25 0 26 0;
#X connect 26 0 27 0;
#X connect 27 0 11 0;
#X connect 28 0 30 0;
#X connect 29 0 30 1;
#X connect 30 0 31 0;
#X connect 31 0 33 0;
#X connect 32 0 1 0;
#X connect 33 0 12 0;
#X restore 179 -46 pd tuning------------;
#X obj 455 430 outlet;
#X msg 456 401 bang;
#X text 273 180 the tuning module sets the initial frequency values
\, multiplied layers of accelerometer X and Y values and range of the
last pwm frequency module;
#X connect 0 0 24 0;
#X connect 1 0 2 0;
#X connect 1 1 2 3;
#X connect 2 0 3 0;
#X connect 3 0 68 0;
#X connect 4 0 5 0;
#X connect 5 0 69 0;
#X connect 7 0 10 0;
#X connect 7 0 11 0;
#X connect 7 0 15 0;
#X connect 7 0 16 0;
#X connect 7 0 37 0;
#X connect 7 0 53 0;
#X connect 7 0 54 0;
#X connect 7 0 55 0;
#X connect 8 0 23 0;
#X connect 9 0 22 0;
#X connect 10 0 39 0;
#X connect 10 0 50 0;
#X connect 11 0 40 0;
#X connect 11 0 26 0;
#X connect 12 0 66 0;
#X connect 13 0 66 0;
#X connect 14 0 22 0;
#X connect 15 0 28 0;
#X connect 16 0 21 0;
#X connect 16 0 41 0;
#X connect 17 0 21 1;
#X connect 17 0 25 1;
#X connect 17 0 26 1;
#X connect 17 0 27 1;
#X connect 17 0 28 1;
#X connect 17 0 50 1;
#X connect 17 0 51 1;
#X connect 17 0 52 1;
#X connect 18 0 19 0;
#X connect 19 0 17 0;
#X connect 21 0 13 1;
#X connect 22 0 0 0;
#X connect 23 0 7 0;
#X connect 24 0 1 0;
#X connect 25 0 9 0;
#X connect 26 0 13 0;
#X connect 27 0 14 0;
#X connect 28 0 12 0;
#X connect 29 0 57 0;
#X connect 30 0 46 0;
#X connect 31 0 42 0;
#X connect 32 0 49 0;
#X connect 33 0 37 0;
#X connect 33 1 37 1;
#X connect 34 0 10 0;
#X connect 34 1 10 1;
#X connect 35 0 11 0;
#X connect 35 1 11 1;
#X connect 36 0 16 0;
#X connect 36 1 16 1;
#X connect 37 0 38 0;
#X connect 37 0 25 0;
#X connect 42 0 45 0;
#X connect 43 0 36 0;
#X connect 44 0 33 0;
#X connect 45 0 35 0;
#X connect 46 0 47 0;
#X connect 47 0 34 0;
#X connect 48 0 74 0;
#X connect 48 1 77 0;
#X connect 49 0 43 0;
#X connect 50 0 9 1;
#X connect 51 0 14 1;
#X connect 52 0 12 1;
#X connect 53 0 27 0;
#X connect 54 0 51 0;
#X connect 55 0 52 0;
#X connect 56 0 73 0;
#X connect 56 1 77 0;
#X connect 57 0 44 0;
#X connect 58 0 67 0;
#X connect 59 0 60 0;
#X connect 59 1 60 3;
#X connect 60 0 61 0;
#X connect 61 0 62 0;
#X connect 62 0 63 0;
#X connect 63 0 64 0;
#X connect 64 0 70 0;
#X connect 66 0 58 0;
#X connect 67 0 59 0;
#X connect 68 0 4 0;
#X connect 69 0 6 0;
#X connect 70 0 65 0;
#X connect 71 0 56 0;
#X connect 72 0 48 0;
#X connect 73 0 10 0;
#X connect 74 0 11 0;
#X connect 75 0 7 0;
#X connect 75 1 73 1;
#X connect 75 2 74 1;
#X connect 75 3 55 1;
#X connect 77 0 76 0;
#X coords 0 0 1 1 85 40 0;
