#N canvas 59 67 653 481 10;
#X obj 70 122 bng 15 250 50 0 empty empty empty 0 -6 0 8 -262144 -1
-1;
#X obj 192 173 delay;
#X floatatom 145 140 5 0 250 0 attack - -;
#X floatatom 231 140 5 0 250 0 decay - -;
#X floatatom 326 140 5 0 100 0 sustain - -;
#X floatatom 423 140 5 0 250 0 release - -;
#X obj 216 194 bng 15 250 50 0 empty empty empty 0 -6 0 8 -262144 -1
-1;
#X msg 79 217 0;
#X obj 226 217 pack 0 0;
#X obj 387 194 pack 0 0;
#X obj 386 117 bng 15 250 50 0 empty empty empty 0 -6 0 8 -262144 -1
-1;
#X obj 88 168 t;
#X obj 209 265 line~;
#X obj 87 32 inlet;
#X obj 163 33 inlet;
#X obj 250 28 inlet;
#X obj 329 32 inlet;
#X obj 418 32 inlet;
#X obj 211 318 outlet~;
#X obj 487 33 inlet;
#X obj 129 217 pack 90 0;
#X connect 0 0 11 0;
#X connect 1 0 6 0;
#X connect 2 0 1 1;
#X connect 2 0 20 1;
#X connect 3 0 8 1;
#X connect 4 0 8 0;
#X connect 5 0 9 1;
#X connect 6 0 8 0;
#X connect 7 0 12 0;
#X connect 8 0 12 0;
#X connect 9 0 12 0;
#X connect 10 0 9 0;
#X connect 11 0 20 0;
#X connect 11 1 7 0;
#X connect 11 1 1 0;
#X connect 12 0 18 0;
#X connect 13 0 0 0;
#X connect 14 0 2 0;
#X connect 15 0 3 0;
#X connect 16 0 4 0;
#X connect 17 0 5 0;
#X connect 19 0 10 0;
#X connect 20 0 12 0;
