#N canvas 657 307 919 439 10;
#X obj 327 -138 vline~;
#X msg 326 -116 1;
#X msg 355 -119 0;
#X msg 368 -161 0 500;
#X obj 369 -138 delay 505;
#X obj 326 -182 sel 1 0;
#X obj 326 -287 r instID;
#X obj 326 -265 + 1;
#X msg 326 -221 1;
#X msg 357 -221 0;
#X obj 326 -201 change;
#X obj 383 -118 loadbang;
#X obj 326 -91 switch~;
#X obj 466 -113 *~;
#X obj 466 -10 outlet~;
#X obj 326 -243 sel 3;
#N canvas 360 586 681 380 tuning------------ 0;
#X obj 38 -297 r tune1x;
#X obj 9 -154 int;
#X obj 95 -297 r tune1y;
#X obj 160 -296 r tune2x;
#X obj 227 -296 r tune2y;
#X obj 300 -294 r tune3x;
#X obj 357 -294 r tune3y;
#X obj 434 -296 r tune4x;
#X obj 509 -297 r tune4y;
#X obj 9 -127 outlet;
#X obj 182 -97 outlet;
#X obj 308 -133 outlet;
#X obj 456 -146 outlet;
#X text 145 -31 Tuning is an important feature in PESI On_Body \, you
can set and save pre-settings for your sound modules.;
#X obj 48 -271 pow 2;
#X obj 87 -271 pow 2;
#X obj 68 -252 +;
#X obj 67 -230 sqrt;
#X obj 197 -266 pow 2;
#X obj 236 -266 pow 2;
#X obj 217 -247 +;
#X obj 216 -225 sqrt;
#X obj 323 -266 pow 2;
#X obj 362 -266 pow 2;
#X obj 343 -247 +;
#X obj 342 -225 sqrt;
#X obj 471 -271 pow 2;
#X obj 510 -271 pow 2;
#X obj 491 -252 +;
#X obj 490 -230 sqrt;
#X text 509 -147 grain pitch;
#X obj 308 -195 sopiscale 0 100 0 500;
#X obj 182 -195 sopiscale 0 90 0 500;
#X obj 9 -193 sopiscale 0 3000 0 500;
#X obj 456 -200 sopiscale 0.1 10 130 500;
#X text 230 -92 Reverb - output level (0-100) dB;
#X text 304 -111 Reverb - liveless level (0-100);
#X text 7 -108 grains - duration (ms);
#X text 145 4 Each sound module in the PESI mobile instrument can be
tuned through a 4-point tuning interface \, which assigns to the sound
module with a parameter pre-set. The vector values for each points
are mapped to parameters which cannot be modified any other way.;
#X connect 0 0 14 0;
#X connect 1 0 9 0;
#X connect 2 0 15 0;
#X connect 3 0 18 0;
#X connect 4 0 19 0;
#X connect 5 0 22 0;
#X connect 6 0 23 0;
#X connect 7 0 26 0;
#X connect 8 0 27 0;
#X connect 14 0 16 0;
#X connect 15 0 16 1;
#X connect 16 0 17 0;
#X connect 17 0 33 0;
#X connect 18 0 20 0;
#X connect 19 0 20 1;
#X connect 20 0 21 0;
#X connect 21 0 32 0;
#X connect 22 0 24 0;
#X connect 23 0 24 1;
#X connect 24 0 25 0;
#X connect 25 0 31 0;
#X connect 26 0 28 0;
#X connect 27 0 28 1;
#X connect 28 0 29 0;
#X connect 29 0 34 0;
#X connect 31 0 11 0;
#X connect 32 0 10 0;
#X connect 33 0 1 0;
#X connect 34 0 12 0;
#X restore 307 -353 pd tuning------------;
#X obj 113 -400 r touchPositionY;
#X obj 333 -400 r gyroscopeX;
#X obj 412 -400 r gyroscopeY;
#X obj 491 -400 r gyroscopeZ;
#X obj 225 -400 r touchPositionX;
#X obj 574 -400 r accelerationX;
#X obj 671 -401 r accelerationY;
#N canvas 985 407 845 547 grannu----------------------- 0;
#X obj 287 156 outlet~;
#X obj 74 -250 clip -1 1;
#X obj 223 -363 inlet tune1;
#X obj 296 -362 inlet tune2;
#X obj 370 -361 inlet tune3;
#X obj 446 -361 inlet tune4;
#X obj 47 147 outlet;
#X obj 287 8 granular;
#X obj 528 -361 inlet;
#X obj 75 -217 sopiscale 0 1 -1 1;
#X obj 72 -364 inlet accelerationX;
#X obj 23 -187 sel 0 1;
#X obj 27 -216 change;
#X obj 309 77 rev3~ 90 60;
#X floatatom 102 -326 5 0 0 0 - - -;
#X connect 1 0 9 0;
#X connect 2 0 7 1;
#X connect 3 0 13 2;
#X connect 4 0 13 3;
#X connect 5 0 7 2;
#X connect 7 0 13 0;
#X connect 7 0 13 1;
#X connect 7 0 0 0;
#X connect 8 0 7 3;
#X connect 9 0 7 0;
#X connect 9 0 12 0;
#X connect 10 0 1 0;
#X connect 11 0 6 0;
#X connect 11 1 6 0;
#X connect 12 0 11 0;
#X connect 13 0 0 0;
#X connect 13 1 0 0;
#X connect 13 2 0 0;
#X connect 13 3 0 0;
#X connect 14 0 1 0;
#X restore 272 -325 pd grannu-----------------------;
#X obj 176 -65 s vibrate;
#X obj 176 -148 spigot;
#X text 316 -72 each sound module has its own intrument id \, so that
the subpatches can manage the on/off control for DSP;
#X text 504 -284 BLUE ONBODY SOUND MODULE;
#X text 505 -265 This sound module delivers grains in new order with
a new microrhythm in avery simple granular synthesis patch. Tuning
changes the values for duration and the pitch values of the grains
\, as well as reverb liveness and output level. Acceleration on x-axis
controls the positions of the grains in buffer (ms).;
#X msg 327 -161 1 400;
#X connect 0 0 13 1;
#X connect 1 0 12 0;
#X connect 2 0 12 0;
#X connect 3 0 0 0;
#X connect 4 0 2 0;
#X connect 5 0 30 0;
#X connect 5 0 1 0;
#X connect 5 0 24 5;
#X connect 5 1 3 0;
#X connect 5 1 4 0;
#X connect 6 0 7 0;
#X connect 7 0 15 0;
#X connect 8 0 10 0;
#X connect 9 0 10 0;
#X connect 10 0 5 0;
#X connect 10 0 26 1;
#X connect 11 0 2 0;
#X connect 13 0 14 0;
#X connect 15 0 8 0;
#X connect 15 1 9 0;
#X connect 16 0 24 1;
#X connect 16 1 24 2;
#X connect 16 2 24 3;
#X connect 16 3 24 4;
#X connect 22 0 24 0;
#X connect 24 0 26 0;
#X connect 24 1 13 0;
#X connect 26 0 25 0;
#X connect 30 0 0 0;
