#N canvas 475 355 843 374 10;
#X obj -51 -318 outlet~;
#X obj 11 -669 r touchPositionY;
#X obj 144 -389 vline~;
#X msg 143 -367 1;
#X msg 172 -370 0;
#X msg 198 -410 0 500;
#X obj 186 -389 delay 505;
#X obj 142 -538 r instID;
#X obj 143 -516 + 1;
#X msg 174 -472 0;
#X obj 143 -453 change;
#X obj 200 -369 loadbang;
#X obj 143 -342 switch~;
#X obj 117 -669 r gyroscopeX;
#X obj 196 -669 r gyroscopeY;
#X obj 275 -669 r gyroscopeZ;
#X obj -94 -669 r touchPositionX;
#X obj 76 -413 s vibrate;
#X obj 143 -494 sel 2;
#X msg 143 -472 1;
#X obj 143 -433 sel 1 0;
#X obj -51 -371 *~;
#X msg 144 -412 0.5 400;
#X obj 75 -437 spigot;
#X obj -51 -343 rev3~ 90 70;
#X obj -52 -602 4p_adapt_subsynth;
#X obj 355 -669 r accelerationX;
#X obj 355 -646 sopiscale 0 10 -1 1;
#X obj 355 -622 int;
#X obj 482 -645 sopiscale 0 10 -1 1;
#X obj 482 -621 int;
#X obj 482 -670 r accelerationY;
#X text 192 -347 each sound module has its own intrument id \, so that
the subpatches can manage the on/off control for DSP;
#X text 362 -492 GREEN ONBODY SOUND MODULE;
#X text 64 -584 Tuning module is in 4p_adapt_subsynth / 4pointWeighted
subpatch and in 4p_adapt_subsynth / SOPIu_sub;
#X text 363 -473 This sound module is a pulse width modulation [PWM]
and squarewave generator for audio synthesis controlled through touch
input and accelerometer data. The 4 point weighted mapping strategy
is described in the following paper:;
#X text 60 -600 <<-- 4 point weighted mapping in tuning module;
#X connect 1 0 25 1;
#X connect 2 0 21 1;
#X connect 3 0 12 0;
#X connect 4 0 12 0;
#X connect 5 0 2 0;
#X connect 6 0 4 0;
#X connect 7 0 8 0;
#X connect 8 0 18 0;
#X connect 9 0 10 0;
#X connect 10 0 20 0;
#X connect 10 0 23 1;
#X connect 11 0 4 0;
#X connect 16 0 25 0;
#X connect 18 0 19 0;
#X connect 18 1 9 0;
#X connect 19 0 10 0;
#X connect 20 0 22 0;
#X connect 20 0 3 0;
#X connect 20 1 5 0;
#X connect 20 1 6 0;
#X connect 21 0 24 0;
#X connect 22 0 2 0;
#X connect 23 0 17 0;
#X connect 24 0 0 0;
#X connect 24 1 0 0;
#X connect 24 2 0 0;
#X connect 24 3 0 0;
#X connect 25 0 21 0;
#X connect 25 1 21 0;
#X connect 25 2 23 0;
#X connect 26 0 27 0;
#X connect 27 0 28 0;
#X connect 28 0 25 2;
#X connect 29 0 30 0;
#X connect 30 0 25 3;
#X connect 31 0 29 0;
