#N canvas 80 99 841 465 10;
#X obj 173 -25 outlet~;
#X obj 113 -415 r touchPositionY;
#X obj 444 -186 vline~;
#X msg 443 -164 1;
#X msg 472 -167 0;
#X msg 497 -208 0 500;
#X obj 486 -186 delay 505;
#X obj 443 -230 sel 1 0;
#X obj 443 -335 r instID;
#X obj 443 -313 + 1;
#X msg 443 -269 1;
#X msg 474 -269 0;
#X obj 443 -249 change;
#X obj 500 -166 loadbang;
#X obj 443 -291 sel 1;
#X obj 443 -139 switch~;
#X obj 333 -415 r gyroscopeX;
#X obj 412 -415 r gyroscopeY;
#X obj 491 -415 r gyroscopeZ;
#X obj 290 -48 s vibrate;
#X obj 574 -376 sopiscale 0 1 -1 1;
#X obj 290 -131 spigot;
#X obj 173 -86 rev3~ 80 80;
#N canvas 419 287 663 361 tuning------------ 0;
#X obj 38 -297 r tune1x;
#X obj 42 -187 int;
#X obj 95 -188 int;
#X obj 95 -297 r tune1y;
#X obj 160 -187 int;
#X obj 228 -190 int;
#X obj 160 -296 r tune2x;
#X obj 227 -296 r tune2y;
#X obj 300 -197 int;
#X obj 357 -195 int;
#X obj 300 -294 r tune3x;
#X obj 357 -294 r tune3y;
#X obj 433 -200 int;
#X obj 511 -201 int;
#X obj 434 -296 r tune4x;
#X obj 509 -300 r tune4y;
#X obj 42 -160 outlet;
#X obj 95 -163 outlet;
#X obj 161 -165 outlet;
#X obj 228 -166 outlet;
#X obj 300 -173 outlet;
#X obj 357 -172 outlet;
#X obj 433 -176 outlet;
#X obj 511 -179 outlet;
#X text 161 -117 Tuning is an important feature in PESI On_Body \,
you can set and save pre-settings for your sound modules.;
#X obj 40 -272 sopiscale 0 10 0 320;
#X obj 95 -224 sopiscale 0 10 0 480;
#X obj 160 -251 sopiscale 0 10 0 320;
#X obj 300 -270 sopiscale 0 10 0 320;
#X obj 434 -268 sopiscale 0 10 0 320;
#X obj 228 -220 sopiscale 0 10 0 480;
#X obj 357 -242 sopiscale 0 10 0 480;
#X obj 503 -230 sopiscale 0 10 0 480;
#X text 162 -80 Each sound module in the PESI mobile instrument can
be tuned through a 4-point tuning interface \, which assigns to the
sound module with a parameter pre-set. The vector values for each points
are mapped to parameters which cannot be modified any other way.;
#X connect 0 0 25 0;
#X connect 1 0 16 0;
#X connect 2 0 17 0;
#X connect 3 0 26 0;
#X connect 4 0 18 0;
#X connect 5 0 19 0;
#X connect 6 0 27 0;
#X connect 7 0 30 0;
#X connect 8 0 20 0;
#X connect 9 0 21 0;
#X connect 10 0 28 0;
#X connect 11 0 31 0;
#X connect 12 0 22 0;
#X connect 13 0 23 0;
#X connect 14 0 29 0;
#X connect 15 0 32 0;
#X connect 25 0 1 0;
#X connect 26 0 2 0;
#X connect 27 0 4 0;
#X connect 28 0 8 0;
#X connect 29 0 12 0;
#X connect 30 0 5 0;
#X connect 31 0 9 0;
#X connect 32 0 13 0;
#X restore 150 -379 pd tuning------------;
#X obj 574 -415 r accelerationX;
#X text 419 -64 RED ONBODY SOUND MODULE;
#X text 493 -143 each sound module has its own intrument id \, so that
the subpatches can manage the on/off control for DSP;
#X obj 172 -288 testTONE;
#X text 75 -267 the test tone is the mix of 4 signals in different
frequencies;
#X text 63 -394 Tuning module sets the frequency values for the testTONE
;
#X text 417 -44 This sound module receives the sensor input data and
generates a test tone. The accelerometer data on x-axis manuplates
the test tone from pure oscillator to sawtooth. It also sends bang
messages when sawtooth signals become audible to activate vabration
motor.;
#X obj 223 -414 r touchPositionY;
#X obj 180 -171 *~;
#X obj 179 -129 +~;
#X obj 147 -171 *~;
#X msg 444 -209 0.2 400;
#X connect 2 0 34 1;
#X connect 2 0 32 1;
#X connect 3 0 15 0;
#X connect 4 0 15 0;
#X connect 5 0 2 0;
#X connect 6 0 4 0;
#X connect 7 0 35 0;
#X connect 7 0 3 0;
#X connect 7 1 5 0;
#X connect 7 1 6 0;
#X connect 8 0 9 0;
#X connect 9 0 14 0;
#X connect 10 0 12 0;
#X connect 11 0 12 0;
#X connect 12 0 7 0;
#X connect 12 0 21 1;
#X connect 13 0 4 0;
#X connect 14 0 10 0;
#X connect 14 1 11 0;
#X connect 20 0 27 8;
#X connect 21 0 19 0;
#X connect 22 0 0 0;
#X connect 22 1 0 0;
#X connect 22 2 0 0;
#X connect 22 3 0 0;
#X connect 23 0 27 0;
#X connect 23 1 27 1;
#X connect 23 2 27 2;
#X connect 23 3 27 3;
#X connect 23 4 27 4;
#X connect 23 5 27 5;
#X connect 23 6 27 6;
#X connect 23 7 27 7;
#X connect 24 0 20 0;
#X connect 27 0 34 0;
#X connect 27 0 32 0;
#X connect 27 1 21 0;
#X connect 32 0 33 0;
#X connect 33 0 22 0;
#X connect 33 0 22 1;
#X connect 34 0 33 1;
#X connect 35 0 2 0;
