#N canvas 560 337 456 348 10;
#X obj 351 -6 inlet;
#X obj 69 286 outlet~;
#X obj -3 -4 inlet;
#N canvas 0 417 450 300 scale 0;
#X obj 110 59 sel 0 1 2 3 4 5 6 7 8 9 10;
#X msg 109 116 0;
#X msg 171 116 3;
#X msg 140 116 2;
#X msg 202 116 5;
#X msg 229 117 7;
#X msg 260 117 8;
#X msg 291 117 11;
#X obj 111 16 inlet;
#X obj 288 16 inlet;
#X obj 284 158 * 12;
#X obj 269 193 +;
#X obj 271 257 outlet;
#X connect 0 1 1 0;
#X connect 0 2 3 0;
#X connect 0 3 2 0;
#X connect 0 4 4 0;
#X connect 0 5 5 0;
#X connect 0 6 6 0;
#X connect 0 7 7 0;
#X connect 1 0 11 0;
#X connect 2 0 11 0;
#X connect 3 0 11 0;
#X connect 4 0 11 0;
#X connect 5 0 11 0;
#X connect 6 0 11 0;
#X connect 7 0 11 0;
#X connect 8 0 0 0;
#X connect 9 0 10 0;
#X connect 10 0 11 1;
#X connect 11 0 12 0;
#X restore -3 18 pd scale;
#X obj 42 -4 inlet;
#N canvas 471 262 450 323 bk 1;
#X obj -28 127 *~;
#X obj -28 90 phasor~;
#X obj 25 89 osc~;
#X obj 25 126 *~;
#X obj -8 52 mtof~;
#X obj -11 25 inlet;
#X obj 23 265 outlet~;
#X msg 205 57 0;
#X msg 232 59 1;
#X msg 263 58 2;
#X obj 225 127 sel 0 1 2;
#X msg 224 152 0;
#X msg 244 176 0.8;
#X msg 255 151 0;
#X floatatom 222 213 5 0 0 0 - - -;
#X obj 223 267 line;
#X obj 274 287 line;
#X obj 276 247 abs;
#X obj 276 227 - 0.8;
#X msg 223 236 \$1 400;
#X msg 274 267 \$1 400;
#X obj 235 85 change;
#X msg 304 59 bang;
#X obj 176 22 moses 0.25;
#X obj 249 22 moses 0.75;
#X obj 306 143 outlet vibra;
#X obj 107 22 inlet acc;
#X connect 0 0 6 0;
#X connect 1 0 0 0;
#X connect 2 0 3 0;
#X connect 3 0 6 0;
#X connect 4 0 2 0;
#X connect 4 0 1 0;
#X connect 5 0 4 0;
#X connect 7 0 21 0;
#X connect 7 0 22 0;
#X connect 8 0 21 0;
#X connect 9 0 21 0;
#X connect 10 0 11 0;
#X connect 10 0 25 0;
#X connect 10 1 12 0;
#X connect 10 1 25 0;
#X connect 10 2 13 0;
#X connect 10 2 25 0;
#X connect 11 0 14 0;
#X connect 12 0 14 0;
#X connect 13 0 14 0;
#X connect 14 0 19 0;
#X connect 14 0 18 0;
#X connect 15 0 3 1;
#X connect 16 0 0 1;
#X connect 17 0 20 0;
#X connect 18 0 17 0;
#X connect 19 0 15 0;
#X connect 20 0 16 0;
#X connect 21 0 10 0;
#X connect 22 0 25 0;
#X connect 23 0 7 0;
#X connect 23 1 8 0;
#X connect 23 1 24 0;
#X connect 24 1 9 0;
#X connect 26 0 23 0;
#X restore 49 108 pd bk;
#X obj 132 290 outlet;
#X obj 86 -6 inlet;
#N canvas 0 417 450 300 scale 0;
#X obj 110 59 sel 0 1 2 3 4 5 6 7 8 9 10;
#X msg 109 116 0;
#X msg 171 116 3;
#X msg 140 116 2;
#X msg 202 116 5;
#X msg 229 117 7;
#X msg 260 117 8;
#X msg 291 117 11;
#X obj 111 16 inlet;
#X obj 288 16 inlet;
#X obj 284 158 * 12;
#X obj 269 193 +;
#X obj 271 257 outlet;
#X connect 0 1 1 0;
#X connect 0 2 3 0;
#X connect 0 3 2 0;
#X connect 0 4 4 0;
#X connect 0 5 5 0;
#X connect 0 6 6 0;
#X connect 0 7 7 0;
#X connect 1 0 11 0;
#X connect 2 0 11 0;
#X connect 3 0 11 0;
#X connect 4 0 11 0;
#X connect 5 0 11 0;
#X connect 6 0 11 0;
#X connect 7 0 11 0;
#X connect 8 0 0 0;
#X connect 9 0 10 0;
#X connect 10 0 11 1;
#X connect 11 0 12 0;
#X restore 86 16 pd scale;
#X obj 131 -6 inlet;
#X obj 173 -6 inlet;
#N canvas 0 417 450 300 scale 0;
#X obj 110 59 sel 0 1 2 3 4 5 6 7 8 9 10;
#X msg 109 116 0;
#X msg 171 116 3;
#X msg 140 116 2;
#X msg 202 116 5;
#X msg 229 117 7;
#X msg 260 117 8;
#X msg 291 117 11;
#X obj 111 16 inlet;
#X obj 288 16 inlet;
#X obj 284 158 * 12;
#X obj 269 193 +;
#X obj 271 257 outlet;
#X connect 0 1 1 0;
#X connect 0 2 3 0;
#X connect 0 3 2 0;
#X connect 0 4 4 0;
#X connect 0 5 5 0;
#X connect 0 6 6 0;
#X connect 0 7 7 0;
#X connect 1 0 11 0;
#X connect 2 0 11 0;
#X connect 3 0 11 0;
#X connect 4 0 11 0;
#X connect 5 0 11 0;
#X connect 6 0 11 0;
#X connect 7 0 11 0;
#X connect 8 0 0 0;
#X connect 9 0 10 0;
#X connect 10 0 11 1;
#X connect 11 0 12 0;
#X restore 173 16 pd scale;
#X obj 218 -6 inlet;
#X obj 259 -8 inlet;
#N canvas 0 417 450 300 scale 0;
#X obj 110 59 sel 0 1 2 3 4 5 6 7 8 9 10;
#X msg 109 116 0;
#X msg 171 116 3;
#X msg 140 116 2;
#X msg 202 116 5;
#X msg 229 117 7;
#X msg 260 117 8;
#X msg 291 117 11;
#X obj 111 16 inlet;
#X obj 288 16 inlet;
#X obj 284 158 * 12;
#X obj 269 193 +;
#X obj 271 257 outlet;
#X connect 0 1 1 0;
#X connect 0 2 3 0;
#X connect 0 3 2 0;
#X connect 0 4 4 0;
#X connect 0 5 5 0;
#X connect 0 6 6 0;
#X connect 0 7 7 0;
#X connect 1 0 11 0;
#X connect 2 0 11 0;
#X connect 3 0 11 0;
#X connect 4 0 11 0;
#X connect 5 0 11 0;
#X connect 6 0 11 0;
#X connect 7 0 11 0;
#X connect 8 0 0 0;
#X connect 9 0 10 0;
#X connect 10 0 11 1;
#X connect 11 0 12 0;
#X restore 259 14 pd scale;
#X obj 304 -8 inlet;
#N canvas 471 262 450 323 bk 0;
#X obj -28 127 *~;
#X obj -28 90 phasor~;
#X obj 25 89 osc~;
#X obj 25 126 *~;
#X obj -8 52 mtof~;
#X obj -11 25 inlet;
#X obj 23 265 outlet~;
#X msg 205 57 0;
#X msg 232 59 1;
#X msg 263 58 2;
#X obj 225 127 sel 0 1 2;
#X msg 224 152 0;
#X msg 244 176 0.8;
#X msg 255 151 0;
#X floatatom 222 213 5 0 0 0 - - -;
#X obj 223 267 line;
#X obj 274 287 line;
#X obj 276 247 abs;
#X obj 276 227 - 0.8;
#X msg 223 236 \$1 400;
#X msg 274 267 \$1 400;
#X obj 235 85 change;
#X msg 304 59 bang;
#X obj 176 22 moses 0.25;
#X obj 249 22 moses 0.75;
#X obj 306 143 outlet vibra;
#X obj 107 22 inlet acc;
#X connect 0 0 6 0;
#X connect 1 0 0 0;
#X connect 2 0 3 0;
#X connect 3 0 6 0;
#X connect 4 0 2 0;
#X connect 4 0 1 0;
#X connect 5 0 4 0;
#X connect 7 0 21 0;
#X connect 7 0 22 0;
#X connect 8 0 21 0;
#X connect 9 0 21 0;
#X connect 10 0 11 0;
#X connect 10 0 25 0;
#X connect 10 1 12 0;
#X connect 10 1 25 0;
#X connect 10 2 13 0;
#X connect 10 2 25 0;
#X connect 11 0 14 0;
#X connect 12 0 14 0;
#X connect 13 0 14 0;
#X connect 14 0 19 0;
#X connect 14 0 18 0;
#X connect 15 0 3 1;
#X connect 16 0 0 1;
#X connect 17 0 20 0;
#X connect 18 0 17 0;
#X connect 19 0 15 0;
#X connect 20 0 16 0;
#X connect 21 0 10 0;
#X connect 22 0 25 0;
#X connect 23 0 7 0;
#X connect 23 1 8 0;
#X connect 23 1 24 0;
#X connect 24 1 9 0;
#X connect 26 0 23 0;
#X restore 94 110 pd bk;
#N canvas 471 262 450 323 bk 0;
#X obj -28 127 *~;
#X obj -28 90 phasor~;
#X obj 25 89 osc~;
#X obj 25 126 *~;
#X obj -8 52 mtof~;
#X obj -11 25 inlet;
#X obj 23 265 outlet~;
#X msg 205 57 0;
#X msg 232 59 1;
#X msg 263 58 2;
#X obj 225 127 sel 0 1 2;
#X msg 224 152 0;
#X msg 244 176 0.8;
#X msg 255 151 0;
#X floatatom 222 213 5 0 0 0 - - -;
#X obj 223 267 line;
#X obj 274 287 line;
#X obj 276 247 abs;
#X obj 276 227 - 0.8;
#X msg 223 236 \$1 400;
#X msg 274 267 \$1 400;
#X obj 235 85 change;
#X msg 304 59 bang;
#X obj 176 22 moses 0.25;
#X obj 249 22 moses 0.75;
#X obj 306 143 outlet vibra;
#X obj 107 22 inlet acc;
#X connect 0 0 6 0;
#X connect 1 0 0 0;
#X connect 2 0 3 0;
#X connect 3 0 6 0;
#X connect 4 0 2 0;
#X connect 4 0 1 0;
#X connect 5 0 4 0;
#X connect 7 0 21 0;
#X connect 7 0 22 0;
#X connect 8 0 21 0;
#X connect 9 0 21 0;
#X connect 10 0 11 0;
#X connect 10 0 25 0;
#X connect 10 1 12 0;
#X connect 10 1 25 0;
#X connect 10 2 13 0;
#X connect 10 2 25 0;
#X connect 11 0 14 0;
#X connect 12 0 14 0;
#X connect 13 0 14 0;
#X connect 14 0 19 0;
#X connect 14 0 18 0;
#X connect 15 0 3 1;
#X connect 16 0 0 1;
#X connect 17 0 20 0;
#X connect 18 0 17 0;
#X connect 19 0 15 0;
#X connect 20 0 16 0;
#X connect 21 0 10 0;
#X connect 22 0 25 0;
#X connect 23 0 7 0;
#X connect 23 1 8 0;
#X connect 23 1 24 0;
#X connect 24 1 9 0;
#X connect 26 0 23 0;
#X restore 137 113 pd bk;
#N canvas 471 262 450 323 bk 0;
#X obj -28 127 *~;
#X obj -28 90 phasor~;
#X obj 25 89 osc~;
#X obj 25 126 *~;
#X obj -8 52 mtof~;
#X obj -11 25 inlet;
#X obj 23 265 outlet~;
#X msg 205 57 0;
#X msg 232 59 1;
#X msg 263 58 2;
#X obj 225 127 sel 0 1 2;
#X msg 224 152 0;
#X msg 244 176 0.8;
#X msg 255 151 0;
#X floatatom 222 213 5 0 0 0 - - -;
#X obj 223 267 line;
#X obj 274 287 line;
#X obj 276 247 abs;
#X obj 276 227 - 0.8;
#X msg 223 236 \$1 400;
#X msg 274 267 \$1 400;
#X obj 235 85 change;
#X msg 304 59 bang;
#X obj 176 22 moses 0.25;
#X obj 249 22 moses 0.75;
#X obj 306 143 outlet vibra;
#X obj 107 22 inlet acc;
#X connect 0 0 6 0;
#X connect 1 0 0 0;
#X connect 2 0 3 0;
#X connect 3 0 6 0;
#X connect 4 0 2 0;
#X connect 4 0 1 0;
#X connect 5 0 4 0;
#X connect 7 0 21 0;
#X connect 7 0 22 0;
#X connect 8 0 21 0;
#X connect 9 0 21 0;
#X connect 10 0 11 0;
#X connect 10 0 25 0;
#X connect 10 1 12 0;
#X connect 10 1 25 0;
#X connect 10 2 13 0;
#X connect 10 2 25 0;
#X connect 11 0 14 0;
#X connect 12 0 14 0;
#X connect 13 0 14 0;
#X connect 14 0 19 0;
#X connect 14 0 18 0;
#X connect 15 0 3 1;
#X connect 16 0 0 1;
#X connect 17 0 20 0;
#X connect 18 0 17 0;
#X connect 19 0 15 0;
#X connect 20 0 16 0;
#X connect 21 0 10 0;
#X connect 22 0 25 0;
#X connect 23 0 7 0;
#X connect 23 1 8 0;
#X connect 23 1 24 0;
#X connect 24 1 9 0;
#X connect 26 0 23 0;
#X restore 185 116 pd bk;
#X connect 0 0 5 1;
#X connect 0 0 16 1;
#X connect 0 0 17 1;
#X connect 0 0 18 1;
#X connect 2 0 3 0;
#X connect 3 0 5 0;
#X connect 4 0 3 1;
#X connect 5 0 1 0;
#X connect 5 1 6 0;
#X connect 7 0 8 0;
#X connect 8 0 16 0;
#X connect 9 0 8 1;
#X connect 10 0 11 0;
#X connect 11 0 17 0;
#X connect 12 0 11 1;
#X connect 13 0 14 0;
#X connect 14 0 18 0;
#X connect 15 0 14 1;
#X connect 16 0 1 0;
#X connect 17 0 1 0;
#X connect 18 0 1 0;
